<svg xmlns="http://www.w3.org/2000/svg" xmlns:xlink="http://www.w3.org/1999/xlink" aria-hidden="true" role="img" width="28" height="28" viewBox="0 0 28 28" fill="#54656f" preserveAspectRatio="xMidYMid meet" class=""><path fill="#54656f" fill-rule="evenodd" clip-rule="evenodd" d="M19.215 12.144a2.543 2.543 0 0 0 .295.881 2.325 2.325 0 0 0 .577.67 2.261 2.261 0 0 0 .685.36 2.331 2.331 0 0 0 .688.104c1.253 0 2.27-1.068 2.27-2.386s-1.017-2.387-2.27-2.387a2.279 2.279 0 0 0-.999.229 2.233 2.233 0 0 0-.95.905 2.342 2.342 0 0 0-.252.644 2.725 2.725 0 0 0-.044.98Zm-10.43 0a2.426 2.426 0 0 1-.148.572 2.424 2.424 0 0 1-.268.499 2.236 2.236 0 0 1-.83.714 2.265 2.265 0 0 1-.532.183c-.153.031-.31.047-.467.047-1.253 0-2.27-1.068-2.27-2.386s1.017-2.387 2.27-2.387a2.28 2.28 0 0 1 .999.229 2.234 2.234 0 0 1 .95.905 2.349 2.349 0 0 1 .252.644 2.73 2.73 0 0 1 .044.98Zm17.084 5.821a3.787 3.787 0 0 0-.235-.364 4.645 4.645 0 0 0-.39-.474 4.837 4.837 0 0 0-1.486-1.077l-.012-.006a6.337 6.337 0 0 0-5.035 0c-.023.01-.044.022-.066.033-.036.017-.07.036-.104.054l.059.033a7.977 7.977 0 0 1 2.67 2.556c.064.102.12.193.166.277.09.154.157.32.198.494l.018.123H26v-1.387a2.185 2.185 0 0 0-.131-.262Zm-8.341-7.798a4.016 4.016 0 0 0-.233-.9 3.752 3.752 0 0 0-.421-.784A3.471 3.471 0 0 0 14 7c-2.021 0-3.568 1.625-3.568 3.75 0 2.126 1.546 3.75 3.568 3.75a3.665 3.665 0 0 0 1.08-.165 3.472 3.472 0 0 0 1.983-1.617 3.753 3.753 0 0 0 .395-1.013 4.301 4.301 0 0 0 .07-1.538Zm3.091 9.289a5.866 5.866 0 0 0-.337-.538 6.701 6.701 0 0 0-.555-.695 6.958 6.958 0 0 0-2.137-1.592c-.94-.452-2.122-.767-3.59-.767-1.469 0-2.65.315-3.59.767-.032.015-.062.032-.094.048a7.44 7.44 0 0 0-.597.335 7.159 7.159 0 0 0-.878.651 7.022 7.022 0 0 0-1.322 1.553 5.771 5.771 0 0 0-.33.621V22h13.622v-2.16a3.82 3.82 0 0 0-.192-.384Zm-14.264.036a.63.63 0 0 1 .081-.242c.034-.066.059-.145.111-.237.058-.1.104-.19.168-.291.068-.107.14-.221.228-.343a7.79 7.79 0 0 1 2.516-2.257c-.028-.015-.055-.03-.085-.044l-.066-.033a5.896 5.896 0 0 0-2.52-.522 5.896 5.896 0 0 0-2.52.522l-.012.005a4.853 4.853 0 0 0-1.09.699 4.981 4.981 0 0 0-.613.623 4.718 4.718 0 0 0-.315.433c-.037.059-.073.112-.1.16-.093.162-.138.263-.138.263v1.386h4.347l.008-.122Z"></path></svg>